<?xml version="1.0" encoding="UTF-8"?>
<svg id="Capa_1" xmlns="http://www.w3.org/2000/svg" version="1.1" viewBox="0 0 2023.802 689.513">
  <!-- Generator: Adobe Illustrator 29.6.0, SVG Export Plug-In . SVG Version: 2.1.1 Build 207)  -->
  <defs>
    <style>
      .st0 {
        fill: #d7d7d8;
      }
    </style>
  </defs>
  <path class="st0" d="M967.717,543.335c-22.305-1.836-44.555-3.137-66.766-4.711-18.508-1.867-36.965-4.191-55.41-6.367,9.164-42.887,5.547-86.023-11.125-122.875-23.254-51.406-71.625-89.883-131.52-104.75-15.254,59.801-4.262,120.617,30.02,165.441,18.035,23.586,42.399,42.582,70.738,55.844-11.59-1.992-23.164-4.039-34.758-5.961l-8.199-1.414-8.117-1.848-16.242-3.688-32.449-7.363c-19.941-4.953-39.785-10.316-59.508-16.125,14.988-36.316,19.164-74.863,11.199-110.371-11.582-51.641-48.684-96.172-100.867-121.219-25.383,52.016-26.852,109.965-3.898,157.648,10.922,22.68,27.293,42.891,47.695,59.551-40.125-13.402-79.594-28.781-118.094-46.437,15.863-31.93,21.793-66.621,16.27-99.074-7.777-45.75-38.242-86.445-82.797-110.762-24.605,44.398-28.539,95.078-10.609,137.879,8.215,19.621,20.969,37.469,37.187,52.625-35.617-18.152-70.293-38.184-103.848-59.984,16.066-27.312,23.59-57.668,20.898-86.836-3.828-41.531-28.328-80.094-66.586-104.941-25.098,38.09-32.109,83.234-18.98,122.82,4.59,13.851,11.617,26.953,20.687,38.914-21.324-15.305-42.129-31.34-62.367-48.082-8.48-6.965-16.855-14.059-25.129-21.269,18.273-25.906,27.859-55.707,26.676-84.813-1.602-39.262-22.781-76.723-57.57-101.957-25.457,34.625-34.234,76.762-23.801,114.641,3.871,14.07,10.375,27.481,19.078,39.766-14.285-13.531-28.231-27.438-41.816-41.691,5.656-31.109,1.84-62.094-11.414-87.953C98.374,53.003,63.42,27.89,21.252,19.585c-8.574,42.109,1.141,84.039,26.504,114.051,18.551,21.941,45.277,37.301,75.73,44.184,29.328,32.285,60.488,62.938,93.301,91.75-14.762-7.801-30.476-12.914-46.5-14.922-41.383-5.184-84.305,10.461-116.797,42.484,31.812,32.695,74.391,49.238,115.875,44.922,30.766-3.195,60.613-17.812,85.043-40.969,37.414,29.973,76.711,57.637,117.594,82.766-24.914-8.183-50.684-10.496-75.172-6.285-45.734,7.871-86.375,38.402-110.609,83.004,44.441,24.523,95.129,28.367,137.902,10.355,31.344-13.187,58.129-37.973,76.633-69.969,15.621,8.992,31.461,17.613,47.496,25.867,24.824,12.805,50.113,24.789,75.828,35.82-25.641-3.203-51.09-1.219-74.66,6.23-50.469,15.945-91.676,56.703-112.176,110.84,53.988,20.852,111.851,17.375,157.402-9.566,32.875-19.441,59.023-50.906,75.062-89.125,39.125,14.738,79.117,27.176,119.812,36.852-20.656,1.426-40.641,6.059-59.141,13.953-51.895,22.148-91.398,69.684-107.543,129.246,59.457,16.535,120.5,6.844,166.039-26.465,32.898-24.059,57.398-60.199,70.453-102.461,2.406.371,4.84.652,7.254.984l33.406,4.434c11.141,1.352,22.211,3.266,33.426,3.914,22.414,1.332,44.774,3.074,67.137,4.047,22.442-.234,44.824-.184,67.164-.68l.742-.691-.691-.82h-.051Z"/>
  <path class="st0" d="M1899.393,177.819c30.457-6.883,57.176-22.242,75.73-44.184,25.363-30.012,35.078-71.941,26.5-114.051-42.164,8.305-77.121,33.418-95.031,68.387-13.262,25.859-17.078,56.844-11.422,87.953-13.59,14.254-27.531,28.16-41.816,41.691,8.699-12.285,15.203-25.695,19.082-39.766,10.43-37.879,1.652-80.016-23.809-114.641-34.789,25.234-55.965,62.695-57.566,101.957-1.188,29.105,8.398,58.906,26.68,84.813-8.277,7.211-16.66,14.305-25.133,21.269-20.242,16.742-41.047,32.777-62.367,48.082,9.07-11.961,16.098-25.062,20.68-38.914,13.129-39.586,6.125-84.731-18.973-122.82-38.262,24.848-62.758,63.41-66.582,104.941-2.699,29.168,4.828,59.523,20.895,86.836-33.559,21.801-68.238,41.832-103.848,59.984,16.219-15.156,28.969-33.004,37.184-52.625,17.934-42.801,14-93.48-10.609-137.879-44.555,24.316-75.016,65.012-82.797,110.762-5.527,32.453.418,67.144,16.266,99.074-38.492,17.656-77.961,33.035-118.09,46.437,20.41-16.66,36.777-36.871,47.695-59.551,22.957-47.684,21.488-105.633-3.895-157.648-52.184,25.047-89.293,69.578-100.867,121.219-7.973,35.508-3.789,74.055,11.199,110.371-19.723,5.809-39.566,11.172-59.512,16.125l-32.445,7.363-16.246,3.688-8.113,1.848-8.199,1.414c-11.594,1.922-23.168,3.969-34.766,5.961,28.352-13.262,52.703-32.258,70.746-55.844,34.277-44.824,45.273-105.641,30.016-165.441-59.898,14.867-108.266,53.344-131.52,104.75-16.672,36.852-20.289,79.988-11.125,122.875-18.441,2.176-36.898,4.5-55.41,6.367-22.207,1.574-44.457,2.875-66.766,4.711h-.047l-.691.742.738.769c22.344.496,44.727.445,67.168.68,22.363-.973,44.723-2.715,67.141-4.047,11.211-.648,22.281-2.562,33.422-3.914l33.402-4.434c2.418-.332,4.848-.613,7.262-.984,13.051,42.262,37.547,78.402,70.449,102.461,45.539,33.309,106.582,43,166.039,26.465-16.148-59.562-55.648-107.098-107.551-129.246-18.492-7.894-38.476-12.527-59.133-13.953,40.695-9.676,80.688-22.113,119.812-36.852,16.039,38.219,42.188,69.684,75.059,89.125,45.555,26.941,103.41,30.418,157.402,9.566-20.492-54.137-61.703-94.894-112.172-110.84-23.57-7.449-49.02-9.434-74.66-6.23,25.715-11.031,51.008-23.016,75.832-35.82,16.031-8.254,31.863-16.875,47.492-25.867,18.504,31.996,45.293,56.781,76.633,69.969,42.773,18.012,93.457,14.168,137.898-10.355-24.238-44.602-64.871-75.133-110.605-83.004-24.488-4.211-50.258-1.898-75.172,6.285,40.879-25.129,80.18-52.793,117.586-82.766,24.438,23.156,54.289,37.773,85.043,40.969,41.484,4.316,84.07-12.227,115.883-44.922-32.492-32.023-75.414-47.668-116.801-42.484-16.027,2.008-31.734,7.121-46.496,14.922,32.809-28.813,63.973-59.465,93.301-91.75Z"/>
</svg>